<?xml version="1.0" encoding="UTF-8" standalone="no"?>
<!DOCTYPE svg PUBLIC "-//W3C//DTD SVG 1.1//EN"
 "http://www.w3.org/Graphics/SVG/1.1/DTD/svg11.dtd">
<!-- Generated by graphviz version 2.44.0 (20200408.0750)
 -->
<!-- Title: dependency&#45;cruiser output Pages: 1 -->
<svg width="314pt" height="374pt"
 viewBox="0.00 0.00 314.00 374.00" xmlns="http://www.w3.org/2000/svg" xmlns:xlink="http://www.w3.org/1999/xlink">
<g id="graph0" class="graph" transform="scale(1 1) rotate(0) translate(4 370)">
<title>dependency&#45;cruiser output</title>
<polygon fill="white" stroke="transparent" points="-4,4 -4,-370 310,-370 310,4 -4,4"/>
<g id="clust1" class="cluster">
<title>cluster_.</title>
<path fill="#ffffff" stroke="black" stroke-width="2" d="M130,-8C130,-8 192,-8 192,-8 198,-8 204,-14 204,-20 204,-20 204,-84 204,-84 204,-90 198,-96 192,-96 192,-96 130,-96 130,-96 124,-96 118,-90 118,-84 118,-84 118,-20 118,-20 118,-14 124,-8 130,-8"/>
<text text-anchor="middle" x="161" y="-83.9" font-family="Helvetica,sans-Serif" font-weight="bold" font-size="9.00">.</text>
</g>
<g id="clust2" class="cluster">
<title>cluster_./listeners</title>
<path fill="#ffffff" stroke="black" stroke-width="2" d="M138,-16C138,-16 184,-16 184,-16 190,-16 196,-22 196,-28 196,-28 196,-57 196,-57 196,-63 190,-69 184,-69 184,-69 138,-69 138,-69 132,-69 126,-63 126,-57 126,-57 126,-28 126,-28 126,-22 132,-16 138,-16"/>
<text text-anchor="middle" x="161" y="-56.9" font-family="Helvetica,sans-Serif" font-weight="bold" font-size="9.00">listeners</text>
</g>
<g id="clust3" class="cluster">
<title>cluster_reverse&#45;engineering</title>
<path fill="#ffffff" stroke="black" stroke-width="2" d="M20,-104C20,-104 286,-104 286,-104 292,-104 298,-110 298,-116 298,-116 298,-346 298,-346 298,-352 292,-358 286,-358 286,-358 20,-358 20,-358 14,-358 8,-352 8,-346 8,-346 8,-116 8,-116 8,-110 14,-104 20,-104"/>
<text text-anchor="middle" x="153" y="-345.9" font-family="Helvetica,sans-Serif" font-weight="bold" font-size="9.00">reverse&#45;engineering</text>
</g>
<g id="clust4" class="cluster">
<title>cluster_reverse&#45;engineering/level&#45;1</title>
<path fill="#ffffff" stroke="black" stroke-width="2" d="M28,-112C28,-112 278,-112 278,-112 284,-112 290,-118 290,-124 290,-124 290,-319 290,-319 290,-325 284,-331 278,-331 278,-331 28,-331 28,-331 22,-331 16,-325 16,-319 16,-319 16,-124 16,-124 16,-118 22,-112 28,-112"/>
<text text-anchor="middle" x="153" y="-318.9" font-family="Helvetica,sans-Serif" font-weight="bold" font-size="9.00">level&#45;1</text>
</g>
<g id="clust5" class="cluster">
<title>cluster_reverse&#45;engineering/level&#45;1/duck&#45;duck&#45;search</title>
<path fill="#ffffff" stroke="black" stroke-width="2" d="M36,-120C36,-120 270,-120 270,-120 276,-120 282,-126 282,-132 282,-132 282,-292 282,-292 282,-298 276,-304 270,-304 270,-304 36,-304 36,-304 30,-304 24,-298 24,-292 24,-292 24,-132 24,-132 24,-126 30,-120 36,-120"/>
<text text-anchor="middle" x="153" y="-291.9" font-family="Helvetica,sans-Serif" font-weight="bold" font-size="9.00">duck&#45;duck&#45;search</text>
</g>
<g id="clust6" class="cluster">
<title>cluster_reverse&#45;engineering/level&#45;1/duck&#45;duck&#45;search/src</title>
<path fill="#ffffff" stroke="black" stroke-width="2" d="M44,-128C44,-128 262,-128 262,-128 268,-128 274,-134 274,-140 274,-140 274,-265 274,-265 274,-271 268,-277 262,-277 262,-277 44,-277 44,-277 38,-277 32,-271 32,-265 32,-265 32,-140 32,-140 32,-134 38,-128 44,-128"/>
<text text-anchor="middle" x="153" y="-264.9" font-family="Helvetica,sans-Serif" font-weight="bold" font-size="9.00">src</text>
</g>
<g id="clust7" class="cluster">
<title>cluster_reverse&#45;engineering/level&#45;1/duck&#45;duck&#45;search/src/init</title>
<path fill="#ffffff" stroke="black" stroke-width="2" d="M52,-197C52,-197 184,-197 184,-197 190,-197 196,-203 196,-209 196,-209 196,-238 196,-238 196,-244 190,-250 184,-250 184,-250 52,-250 52,-250 46,-250 40,-244 40,-238 40,-238 40,-209 40,-209 40,-203 46,-197 52,-197"/>
<text text-anchor="middle" x="118" y="-237.9" font-family="Helvetica,sans-Serif" font-weight="bold" font-size="9.00">init</text>
</g>
<g id="clust8" class="cluster">
<title>cluster_reverse&#45;engineering/level&#45;1/duck&#45;duck&#45;search/src/listeners</title>
<path fill="#ffffff" stroke="black" stroke-width="2" d="M52,-136C52,-136 98,-136 98,-136 104,-136 110,-142 110,-148 110,-148 110,-177 110,-177 110,-183 104,-189 98,-189 98,-189 52,-189 52,-189 46,-189 40,-183 40,-177 40,-177 40,-148 40,-148 40,-142 46,-136 52,-136"/>
<text text-anchor="middle" x="75" y="-176.9" font-family="Helvetica,sans-Serif" font-weight="bold" font-size="9.00">listeners</text>
</g>
<!-- ./listeners/click.js -->
<g id="node1" class="node">
<title>./listeners/click.js</title>
<path fill="#ffffcc" stroke="red" d="M181.8,-42.3C181.8,-42.3 140.2,-42.3 140.2,-42.3 137.1,-42.3 134,-39.2 134,-36.1 134,-36.1 134,-29.9 134,-29.9 134,-26.8 137.1,-23.7 140.2,-23.7 140.2,-23.7 181.8,-23.7 181.8,-23.7 184.9,-23.7 188,-26.8 188,-29.9 188,-29.9 188,-36.1 188,-36.1 188,-39.2 184.9,-42.3 181.8,-42.3"/>
<text text-anchor="middle" x="161" y="-30.3" font-family="Helvetica,sans-Serif" font-size="9.00" fill="red">click.js</text>
</g>
<!-- reverse&#45;engineering/level&#45;1/duck&#45;duck&#45;search/src/data.js -->
<g id="node2" class="node">
<title>reverse&#45;engineering/level&#45;1/duck&#45;duck&#45;search/src/data.js</title>
<g id="a_node2"><a xlink:href="reverse-engineering/level-1/duck-duck-search/src/data.js" xlink:title="data.js">
<path fill="#ffffcc" stroke="black" d="M259.8,-223.3C259.8,-223.3 218.2,-223.3 218.2,-223.3 215.1,-223.3 212,-220.2 212,-217.1 212,-217.1 212,-210.9 212,-210.9 212,-207.8 215.1,-204.7 218.2,-204.7 218.2,-204.7 259.8,-204.7 259.8,-204.7 262.9,-204.7 266,-207.8 266,-210.9 266,-210.9 266,-217.1 266,-217.1 266,-220.2 262.9,-223.3 259.8,-223.3"/>
<text text-anchor="middle" x="239" y="-211.3" font-family="Helvetica,sans-Serif" font-size="9.00">data.js</text>
</a>
</g>
</g>
<!-- reverse&#45;engineering/level&#45;1/duck&#45;duck&#45;search/src/init/index.js -->
<g id="node3" class="node">
<title>reverse&#45;engineering/level&#45;1/duck&#45;duck&#45;search/src/init/index.js</title>
<g id="a_node3"><a xlink:href="reverse-engineering/level-1/duck-duck-search/src/init/index.js" xlink:title="index.js">
<path fill="#ffffcc" stroke="black" d="M95.8,-223.3C95.8,-223.3 54.2,-223.3 54.2,-223.3 51.1,-223.3 48,-220.2 48,-217.1 48,-217.1 48,-210.9 48,-210.9 48,-207.8 51.1,-204.7 54.2,-204.7 54.2,-204.7 95.8,-204.7 95.8,-204.7 98.9,-204.7 102,-207.8 102,-210.9 102,-210.9 102,-217.1 102,-217.1 102,-220.2 98.9,-223.3 95.8,-223.3"/>
<text text-anchor="middle" x="75" y="-211.3" font-family="Helvetica,sans-Serif" font-size="9.00">index.js</text>
</a>
</g>
</g>
<!-- reverse&#45;engineering/level&#45;1/duck&#45;duck&#45;search/src/init/index.js&#45;&gt;./listeners/click.js -->
<g id="edge1" class="edge">
<title>reverse&#45;engineering/level&#45;1/duck&#45;duck&#45;search/src/init/index.js&#45;&gt;./listeners/click.js</title>
<path fill="none" stroke="#000000" stroke-width="2" stroke-opacity="0.200000" d="M95.51,-204.6C100.83,-201.25 106.17,-197.04 110,-192 143.89,-147.47 155.11,-79.49 158.57,-48.9"/>
<polygon fill="#000000" fill-opacity="0.200000" stroke="#000000" stroke-width="2" stroke-opacity="0.200000" points="160.69,-48.81 159.23,-42.62 156.52,-48.37 160.69,-48.81"/>
</g>
<!-- reverse&#45;engineering/level&#45;1/duck&#45;duck&#45;search/src/init/ui.js -->
<g id="node4" class="node">
<title>reverse&#45;engineering/level&#45;1/duck&#45;duck&#45;search/src/init/ui.js</title>
<g id="a_node4"><a xlink:href="reverse-engineering/level-1/duck-duck-search/src/init/ui.js" xlink:title="ui.js">
<path fill="#ffffcc" stroke="black" d="M181.8,-223.3C181.8,-223.3 140.2,-223.3 140.2,-223.3 137.1,-223.3 134,-220.2 134,-217.1 134,-217.1 134,-210.9 134,-210.9 134,-207.8 137.1,-204.7 140.2,-204.7 140.2,-204.7 181.8,-204.7 181.8,-204.7 184.9,-204.7 188,-207.8 188,-210.9 188,-210.9 188,-217.1 188,-217.1 188,-220.2 184.9,-223.3 181.8,-223.3"/>
<text text-anchor="middle" x="161" y="-211.3" font-family="Helvetica,sans-Serif" font-size="9.00">ui.js</text>
</a>
</g>
</g>
<!-- reverse&#45;engineering/level&#45;1/duck&#45;duck&#45;search/src/init/index.js&#45;&gt;reverse&#45;engineering/level&#45;1/duck&#45;duck&#45;search/src/init/ui.js -->
<g id="edge2" class="edge">
<title>reverse&#45;engineering/level&#45;1/duck&#45;duck&#45;search/src/init/index.js&#45;&gt;reverse&#45;engineering/level&#45;1/duck&#45;duck&#45;search/src/init/ui.js</title>
<path fill="none" stroke="#000000" stroke-width="2" stroke-opacity="0.200000" d="M102.12,-214C110.18,-214 119.15,-214 127.58,-214"/>
<polygon fill="#000000" fill-opacity="0.200000" stroke="#000000" stroke-width="2" stroke-opacity="0.200000" points="127.9,-216.1 133.9,-214 127.9,-211.9 127.9,-216.1"/>
</g>
<!-- reverse&#45;engineering/level&#45;1/duck&#45;duck&#45;search/src/init/ui.js&#45;&gt;reverse&#45;engineering/level&#45;1/duck&#45;duck&#45;search/src/data.js -->
<g id="edge3" class="edge">
<title>reverse&#45;engineering/level&#45;1/duck&#45;duck&#45;search/src/init/ui.js&#45;&gt;reverse&#45;engineering/level&#45;1/duck&#45;duck&#45;search/src/data.js</title>
<path fill="none" stroke="#000000" stroke-width="2" stroke-opacity="0.200000" d="M188.15,-214C193.77,-214 199.76,-214 205.58,-214"/>
<polygon fill="#000000" fill-opacity="0.200000" stroke="#000000" stroke-width="2" stroke-opacity="0.200000" points="205.8,-216.1 211.8,-214 205.8,-211.9 205.8,-216.1"/>
</g>
<!-- reverse&#45;engineering/level&#45;1/duck&#45;duck&#45;search/src/listeners/click.js -->
<g id="node5" class="node">
<title>reverse&#45;engineering/level&#45;1/duck&#45;duck&#45;search/src/listeners/click.js</title>
<g id="a_node5"><a xlink:href="reverse-engineering/level-1/duck-duck-search/src/listeners/click.js" xlink:title="click.js">
<path fill="#ccffcc" stroke="black" d="M95.8,-162.3C95.8,-162.3 54.2,-162.3 54.2,-162.3 51.1,-162.3 48,-159.2 48,-156.1 48,-156.1 48,-149.9 48,-149.9 48,-146.8 51.1,-143.7 54.2,-143.7 54.2,-143.7 95.8,-143.7 95.8,-143.7 98.9,-143.7 102,-146.8 102,-149.9 102,-149.9 102,-156.1 102,-156.1 102,-159.2 98.9,-162.3 95.8,-162.3"/>
<text text-anchor="middle" x="75" y="-150.3" font-family="Helvetica,sans-Serif" font-size="9.00">click.js</text>
</a>
</g>
</g>
</g>
</svg>
